<?xml version="1.0" encoding="utf-8"?>
<!-- Generator: Adobe Illustrator 19.2.0, SVG Export Plug-In . SVG Version: 6.00 Build 0)  -->
<svg version="1.1" id="Layer_1" xmlns="http://www.w3.org/2000/svg" xmlns:xlink="http://www.w3.org/1999/xlink" x="0px" y="0px"
	 viewBox="0 0 419.9 167.7" style="enable-background:new 0 0 419.9 167.7;" xml:space="preserve">
<style type="text/css">
	.st0{fill:#1E1F1F;}
	.st1{fill:#EA8C23;}
	.st2{clip-path:url(#SVGID_2_);fill:#1E1F1F;}
	.st3{fill:#FFFFFF;}
</style>
<rect x="126.1" y="-126.1" transform="matrix(-1.836970e-16 1 -1 -1.836970e-16 293.8074 -126.1208)" class="st0" width="167.7" height="419.9"/>
<rect x="7.1" y="7.1" class="st1" width="405.8" height="101"/>
<g>
	<g>
		<defs>
			<polygon id="SVGID_1_" points="140.1,8.9 7.1,8.9 7.1,121.8 53.7,121.8 413.6,121.8 413.6,8.9 			"/>
		</defs>
		<clipPath id="SVGID_2_">
			<use xlink:href="#SVGID_1_"  style="overflow:visible;"/>
		</clipPath>
		<path class="st2" d="M463.4,111.6c-4-1-7.9-1.9-8.8-2.2c-1.9-0.6-5.8-0.2-7,0c-0.2,0-0.4,0-0.6-0.1c-1.5-0.8-8.8-4.6-11.4-5.2
			c-2.9-0.7-8-2-12.4-1.3c-3.7,0.6-6.6-6.3-7.4-8.5c-0.1-0.4-0.5-0.6-1-0.6H411c-0.6,0-1-0.4-1-1v-6c0-0.5-0.4-0.9-0.9-1
			c-0.7-0.1-1.7-0.5-2-1.3c-0.6-1.3-1.6-1.5-1.9-2.7c-0.3-1.2-0.6-1.3-1.6-1.6c-1-0.3-24.4,0-24.4,0c-0.5,0-0.8-0.3-0.8-0.8v-0.1
			c0-0.4-0.4-0.8-0.8-0.8h-1.6c-0.5,0-0.8-0.2-0.8-0.4s-0.2-0.6-0.4-0.8c-0.2-0.2-0.6-0.6-0.9-0.9l-0.6-0.6
			c-0.2-0.2-0.3-0.4-0.3-0.7v-4.1c0-0.1,0-0.1,0-0.2c0.1-0.4,0.4-2.3-1.3-2.9c-0.4-0.1-0.7-0.5-0.7-0.9V55.3c0-0.4-0.3-0.8-0.6-0.8
			s-0.6-0.3-0.6-0.8v-2.1c0-0.4-0.3-0.8-0.8-0.8c-0.4,0-0.8-0.3-0.8-0.8v-1.5c0-0.4-0.3-0.8-0.7-0.8s-0.7-0.3-0.7-0.8v-0.2
			c0-0.4-0.3-0.8-0.6-0.8c-0.4,0-0.6-0.3-0.6-0.8v-1c0-0.4-0.4-0.8-0.8-0.8h-0.1c-0.5,0-0.8-0.3-0.8-0.8v-1.3c0-0.4-0.3-0.8-0.6-0.8
			c-0.4,0-0.6-0.3-0.6-0.8V39c0-0.4-0.4-0.8-0.8-0.8s-0.8-0.3-0.8-0.8v-0.2c0-0.4-0.4-0.8-0.8-0.8h-0.4c-0.5,0-0.8,0.3-0.8,0.8v1.2
			c0,0.4-0.3,0.8-0.6,0.8c-0.3,0-0.6,0.3-0.6,0.8V41c0,0.4-0.3,0.8-0.6,0.8s-0.6,0.3-0.6,0.8v1.8c0,0.4-0.3,0.8-0.6,0.8
			s-0.6,0.3-0.6,0.6c0,0.3-0.4,0.6-0.8,0.6h-0.1c-0.5,0-0.8,0.3-0.8,0.8v1.9c0,0.4-0.3,0.8-0.6,0.8c-0.3,0-0.6,0.3-0.6,0.8v2.9
			c0,0.4-0.3,0.8-0.6,0.8c-0.4,0-0.6,0.3-0.6,0.8v4.9c0,0.4-0.4,0.8-0.8,0.8c-0.5,0-0.8,0.3-0.8,0.8v7.1c0,0.4-0.3,0.8-0.7,0.8
			c-0.4,0-0.7,0.3-0.7,0.7c0,0.4-0.4,0.7-0.8,0.7H347c-0.5,0-0.8,0.3-0.8,0.8v0.9c0,0.5-0.5,1-1,1h-2.4c-0.6,0-1-0.4-1-1v-3.6
			c0-0.4-0.4-0.8-0.8-0.8s-0.8-0.3-0.8-0.8v-2.4c0-0.4-0.3-0.8-0.6-0.8c-0.3,0-0.6-0.3-0.6-0.8v-1.4c0-0.4-0.3-0.8-0.8-0.8
			c-0.4,0-0.8-0.3-0.8-0.8v-1.1c0-0.4-0.2-0.8-0.5-0.8c-0.3,0-0.5-0.3-0.5-0.8v-0.9c0-0.4-0.4-0.8-0.8-0.8h-0.1
			c-0.5,0-0.8-0.3-0.8-0.8v-3.1c0-0.5-0.5-1-1-1h-0.8c-0.6,0-1,0.4-1,1v1.2c0,0.4-0.3,0.8-0.7,0.8c-0.4,0-0.7,0.3-0.7,0.8V56
			c0,0.4-0.3,0.8-0.7,0.8c-0.4,0-0.7,0.3-0.7,0.8V59c0,0.4-0.3,0.8-0.8,0.8c-0.4,0-0.8,0.3-0.8,0.8v0.3c0,0.4-0.3,0.8-0.7,0.8
			s-0.7,0.3-0.7,0.8v3.2c0,0.4-0.3,0.8-0.6,0.8c-0.3,0-0.6,0.3-0.6,0.8v1.3c0,0.4-0.4,0.8-0.8,0.8h-0.4c-0.5,0-0.8,0.3-0.8,0.8v0.3
			c0,0.4-0.4,0.8-0.8,0.8h-0.1c-0.5,0-0.8,0.2-0.8,0.5s-0.4,0.5-0.8,0.5h-4c-0.5,0-0.8-0.3-0.8-0.8v-0.1c0-0.4-0.4-0.8-0.8-0.8h-0.3
			c-0.5,0-0.8-0.3-0.8-0.8v-1.3c0-0.4,0-1.1,0-1.5V66c0-0.5-0.5-1-1-1h-3.5c-0.6,0-1-0.4-1-1v-0.9c0-0.4-0.2-0.8-0.5-0.8
			s-0.5-0.3-0.5-0.8V61c0-0.5-0.5-1-1-1h-2c-0.6,0-1-0.4-1-1v-6.7c0-0.4-0.4-0.8-0.8-0.8h-0.3c-0.5,0-0.8-0.3-0.8-0.8v-0.3
			c0-0.4,0.4-0.8,0.8-0.8h0.3c0.5,0,0.8-0.3,0.8-0.8V46c0-0.5-0.5-1-1-1c-0.6,0-1-0.4-1-1v-2c0-0.5,0.5-1,1-1h0.7
			c0.5,0,0.8-0.3,0.8-0.8s-0.4-0.8-0.8-0.8h-0.9c-0.5,0-0.8-0.3-0.8-0.8s-0.4-0.8-0.8-0.8c0,0-0.4,0-0.4-1.5c0-1.5,0.4-1.7-0.3-2.4
			c-0.6-0.8-1.1-1.7-1.2-3.3c-0.1-1.2-0.4-2-0.6-2.4c-0.1-0.1-0.2-0.2-0.3-0.3l-1.6-1.2c-0.2-0.1-0.3-0.3-0.4-0.5
			c-0.1-0.4-0.4-1.2-1.1-2.2c-1.1-1.5-0.9-1.4-1.2-2.7c-0.3-1.3-1.2-1-1.4-2.8c-0.2-1.8,0-3.3-0.4-3.8c-0.4-0.5-2.1,0.1-2.1,0.1
			c-0.4,0.1-0.8,0.6-0.8,1v1.4c0,0.4-0.4,0.8-0.8,0.8c-0.4,0-0.8,0.3-0.8,0.8v1.5c0,0.4-0.4,0.8-0.8,0.8s-0.8,0.3-0.8,0.8v1.7
			c0,0.4-0.4,0.8-0.8,0.8h0c-0.5,0-0.8,0.3-0.8,0.8v1.2c0,0.4-0.4,0.8-0.8,0.8c-0.4,0-0.8,0.3-0.8,0.8v2.6c0,0.4-0.3,0.8-0.6,0.8
			c-0.3,0-0.6,0.3-0.6,0.8v1.2c0,0.4-0.3,0.8-0.7,0.8c-0.4,0-0.7,0.3-0.7,0.8V37c0,0.4-0.4,0.8-0.8,0.8c-0.4,0-0.8,0.3-0.8,0.8v4.9
			c0,0.4,0.3,0.8,0.7,0.8s0.7,0.2,0.7,0.4c0,0.2-0.4,0.4-0.8,0.4h-0.4c-0.6,0-1,0.4-1,1v1.9c0,0.4,0.3,0.8,0.7,0.8s0.7,0.3,0.7,0.8
			v2.4c0,0.4-0.4,0.8-0.8,0.8H277c-0.5,0-0.8,0.3-0.8,0.8V59c0,0.5-0.5,1-1,1h-0.4c-0.5,0-0.8,0.3-0.8,0.8v0.2
			c0,0.4-0.4,0.8-0.8,0.8h-0.3c-0.5,0-0.8,0.3-0.8,0.8v4.3c0,0.5-0.5,1-1,1h-1.8c-0.5,0-0.8,0.3-0.8,0.8v0.2c0,0.4-0.4,0.8-0.8,0.8
			H267c-0.6,0-1,0.4-1,1v2c0,0.5-0.5,1-1,1h-10c-0.5,0-0.8-0.3-0.8-0.8v0c0-0.4-0.3-0.8-0.7-0.8c-0.4,0-0.7-0.3-0.7-0.7
			c0-0.4-0.4-0.7-0.8-0.7h-0.8c-0.6,0-1-0.4-1-1v-4.6c0-0.4-0.4-0.8-0.8-0.8s-0.8-0.3-0.8-0.8v-1.6c0-0.4,0.3-0.8,0.7-0.8
			s0.7-0.3,0.7-0.8v-2.1c0-0.4-0.3-0.8-0.7-0.8s-0.7-0.3-0.7-0.8V54c0-0.4-0.4-0.8-0.8-0.8s-0.8-0.3-0.8-0.8v-3
			c0-0.4-0.2-0.8-0.5-0.8s-0.5-0.3-0.5-0.8v-3.1c0-0.4-0.4-0.8-0.8-0.8h0c-0.5,0-0.8-0.3-0.8-0.8v-1.2c0-0.4-0.4-0.8-0.8-0.8
			s-0.8-0.3-0.8-0.8v-1.3c0-0.4-0.3-0.8-0.6-0.8c-0.3,0-0.6-0.3-0.6-0.8v-1.3c0-0.4-0.3-0.8-0.7-0.8s-0.7-0.3-0.7-0.8v-1.3
			c0-0.4-0.3-0.8-0.7-0.8c-0.4,0-1,0-1.4,0s-0.7,0.3-0.7,0.8v0.9c0,0.4-0.4,0.8-0.8,0.8h0c-0.5,0-0.8,0.3-0.8,0.8v0.7
			c0,0.4-0.3,0.8-0.6,0.8s-0.6,0.3-0.6,0.8v1.1c0,0.4-0.4,0.8-0.8,0.8s-0.8,0.3-0.8,0.8v1.7c0,0.4-0.2,0.8-0.5,0.8s-0.5,0.3-0.5,0.8
			v2.2c0,0.4-0.2,0.8-0.5,0.8s-0.5,0.3-0.5,0.8v0.2c0,0.5-0.5,1-1,1h-2.4c-0.6,0-1,0.4-1,1V52c0,0.4-0.4,0.8-0.8,0.8h-0.3
			c-0.5,0-0.8,0.3-0.8,0.8V56c0,0.4-0.3,0.8-0.7,0.8s-0.7,0.3-0.7,0.8v0.8c0,0.4-0.3,0.8-0.6,0.8c-0.3,0-0.6,0.3-0.6,0.8v1.6
			c0,0.4-0.3,0.8-0.7,0.8c-0.4,0-0.7,0.3-0.7,0.8v2.9c0,0.4-0.3,0.8-0.7,0.8c-0.4,0-0.7,0.3-0.7,0.8v11c0,0.4-0.4,0.8-0.8,0.8
			s-0.8,0.3-0.8,0.8v11.5c0,0.5-0.5,1-1,1h-0.7c-0.5,0-0.8,0.3-0.8,0.7c0,0.4-0.4,0.7-0.8,0.7h-4.7c-0.6,0-1-0.4-1-1v-0.2
			c0-0.4-0.4-0.8-0.8-0.8h0c-0.5,0-0.8-0.3-0.8-0.7s-0.3-0.7-0.7-0.7c-0.4,0-0.7-0.3-0.7-0.8v-0.4c0-0.5-0.5-1-1-1h-9.2
			c-0.5,0-0.8,0.3-0.8,0.6c0,0.3-0.4,0.6-0.8,0.6h-2.6c-0.5,0-1.2,0-1.7,0h-1.6c-0.6,0-1-0.4-1-1v-2.3c0-0.4-0.4-0.8-0.8-0.8h-0.2
			c-0.5,0-0.9-0.3-1-0.7c-0.2-0.8-0.4-2,0.2-2h1.3c0.6,0,1-0.4,1-1v-0.5c0-0.5-0.5-1-1-1h-0.6c-0.5,0-0.8-0.3-0.8-0.7
			c0-0.4-0.3-0.7-0.6-0.7c-0.3,0-0.6-0.3-0.6-0.8v-0.8c0-0.4,0.4-0.8,0.8-0.8h0c0.5,0,0.8-0.3,0.8-0.8v-2c0-0.4-0.4-0.8-0.8-0.8h0
			c-0.5,0-0.8-0.3-0.8-0.8v-3.1c0-0.4,0-1,0-1.4c0-0.3-0.4-0.6-0.8-0.6h-10.6c-0.5,0-0.8,0.3-0.8,0.8v0.2c0,0.4-0.4,0.8-0.8,0.8
			h-4.2c-0.6,0-1,0.4-1,1v0.4c0,0.4-0.3,0.8-0.7,0.8c-0.4,0-0.7,0.3-0.7,0.7c0,0.4-0.4,0.7-0.8,0.7h-0.3c-0.6,0-1,0.4-1,1V74
			c0,0.4,0.4,0.8,0.8,0.8h0.2c0.5,0,0.8,0.3,0.8,0.8v2c0,0.5-0.5,1-1,1h-0.4c-0.5,0-0.8,0.3-0.8,0.8v0.3c0,0.4-0.3,0.8-0.7,0.8
			c-0.4,0-0.7,0.3-0.7,0.8v0.2c0,0.4,0.4,0.8,0.8,0.8h0.6c0.6,0,1,0.4,1,1v2.4c0,0.4-0.4,0.8-0.8,0.8h0c-0.5,0-0.8,0.3-0.8,0.8v4.4
			c0,0.5-0.5,1-1,1h-6.5c-0.6,0-1,0.4-1,1v0.6c0,0.4-0.4,0.8-0.8,0.8h-0.3c-0.5,0-0.8,0.3-0.8,0.8v3c0,0.4-0.4,0.8-0.8,0.8
			s-0.8,0.3-0.8,0.7s-0.4,0.7-0.8,0.7h-23.9c-0.5,0-0.8-0.3-0.8-0.7c0-0.4-0.4-0.7-0.8-0.7H121c-0.5,0-0.8-0.3-0.8-0.7
			s-0.4-0.7-0.8-0.7h-1.4c-0.5,0-0.8-0.3-0.8-0.8v0c0-0.4-0.4-0.8-0.8-0.8h-0.2c-0.6,0-1-0.4-1-1v-4.1c0-0.5-0.5-1-1-1h-0.3
			c-0.5,0-0.8-0.3-0.8-0.7s-0.3-0.7-0.6-0.7c-0.3,0-0.6-0.3-0.6-0.8v0c0-0.4-0.4-0.8-0.8-0.8c-0.4,0-0.8-0.3-0.8-0.8v-0.2
			c0-0.4-0.3-0.8-0.7-0.8c-0.4,0-0.7-0.3-0.7-0.7s-0.4-0.7-0.8-0.7h0c-0.5,0-0.8-0.3-0.8-0.8v0c0-0.4-0.3-0.8-0.6-0.8
			c-0.3,0-0.6-0.3-0.6-0.6s-0.4-0.6-0.8-0.6h-4.2c-0.5,0-0.8,0.2-0.8,0.4c0,0.2-0.3,0.4-0.6,0.4s-0.6,0.3-0.6,0.8v0.2
			c0,0.4-0.4,0.8-0.8,0.8h-1.1c-0.5,0-0.8,0.3-0.8,0.7c0,0.4-0.4,0.7-0.8,0.7H95c-0.5,0-0.8,0.3-0.8,0.8v4.5c0,0.3,0.1,0.5,0.3,0.7
			l1,0.9c0.2,0.2,0.3,0.4,0.3,0.7v1.4c0,0.5-0.5,1-1,1h-3.9c-0.6,0-1,0.4-1,1v1.8c0,0.5-0.5,1-1,1h-0.8c-0.6,0-1,0.4-1,1v0.3
			c0,0.5-0.5,1-1,1H74.3c-0.6,0-1-0.4-1-1V98c0-0.4,0.4-0.8,0.8-0.8h0.2c0.5,0,0.8-0.3,0.8-0.8v-4.7c0-0.4-0.3-0.8-0.6-0.8
			c-0.3,0-0.6-0.3-0.6-0.8v-0.2c0-0.5-0.5-1-1-1h-4.1c-0.6,0-1,0.4-1,1v2.1c0,0.4-0.3,0.8-0.7,0.8s-0.7,0.3-0.7,0.8v2.5
			c0,0.4,0.4,0.8,0.8,0.8h0.3c0.5,0,0.8,0.3,0.8,0.8v1.5c0,0.5-0.5,1-1,1h-4.2c-0.5,0-0.8-0.3-0.8-0.8v0c0-0.4-0.4-0.8-0.8-0.8h-0.2
			c-0.6,0-1-0.4-1-1l1.8-13.3c0.1-0.8,0.2-1.7,0.2-2.5V59.5c0-0.5,0.3-0.8,0.8-0.9c2.3-0.5,8.8-2.4,9.5-8.3c0.9-7.2-0.2-10.1-2.4-9
			c-2.2,1.1-1.5-4.9-1.9-5.1c-0.5-0.1-2.7,0.9-3-0.6c-0.4-1.5-7.3-1.6-8.4,1.1c-1.1,2.7-0.7,0.8-2.7,6.7s-3.4,5.6-0.5,9.7
			c2.3,3.2,5.5,5,6.7,5.6c0.3,0.2,0.5,0.5,0.5,0.8v20.7c0,0.2,0,0.4,0,0.7L59,94.4c0,0.4-0.1,0.8-0.1,0.9c0,0.4-0.2,0.7-0.6,0.9
			c-0.4,0.2-0.7,1.2-0.7,1.2c-0.1,0.4-0.6,0.8-1,0.8c0,0-0.3,0-0.7,1.2c-0.1,0.4-0.5,0.8-1,0.8h-2.3c-0.6,0-1-0.4-1-1v-6
			c0-0.2-0.1-0.4-0.2-0.6c-0.4-0.5-1.4-1.9-1.5-3.4c-0.1-1.9,0.4-2.7-2.8-3.1c-3.2-0.4-4.5-0.7-5,1.9c-0.5,2.6-1.6,2.4-2.1,2.1
			C39.7,90,36.5,75.7,36,73c-0.1-0.3-0.3-0.5-0.6-0.7c-1.9-0.9-9.1-3.6-4.6,7c5.1,12.1-3.6,9.4-10.9,10.8
			c-7.3,1.3-6.6,7.4-10.9,15.5c-1.6,2.9-3.4,4.8-5.1,5.9H463.4z"/>
	</g>
	<polygon class="st0" points="53.3,106.1 6.7,106.1 6.7,159.7 6.7,160.6 412.8,160.6 412.8,159.7 412.8,106.1 	"/>
</g>
<g>
	<path class="st3" d="M18.9,118.7c0-0.9-0.5-1.3-1.3-1.3H15v-5.1h6c2.7,0,3.8,1.1,3.8,3.8V130h4c1.6,0,2.7-0.2,3.5-1.4l9.4-16.3h6.7
		l-10.2,17.5c-1.2,2.1-2.4,2.7-2.4,2.7v0.1c0,0,1.2,0.3,2.4,2.6l6.3,12.7c0.6,1.3,1.6,1.4,3,1.4h1.1v5.1h-3.3
		c-3.3,0-4.5-0.4-5.9-3.2l-7.3-14.6c-0.7-1.4-2-1.6-3.8-1.6h-3.6v19.4h-6V118.7z"/>
	<path class="st3" d="M55.4,118.7c0-0.9-0.5-1.3-1.3-1.3h-2.6v-5.1h6c2.7,0,3.8,1.1,3.8,3.8v14.8h21.5v-14.8c0-2.7,1.1-3.8,3.8-3.8
		h6v5.1h-2.6c-0.8,0-1.3,0.4-1.3,1.3v35.7h-6V136H61.4v18.5h-6V118.7z"/>
	<path class="st3" d="M96.2,149.3h2c0.8,0,1.3-0.5,1.3-1.3l2.9-35.7h6.2l9.9,22.4c1,2.3,2.1,5.3,2.1,5.3h0.1c0,0,1.1-3,2.1-5.3
		l9.9-22.4h6.2l2.9,35.7c0.1,0.8,0.5,1.3,1.3,1.3h2v5.1h-5.3c-2.7,0-3.6-1.1-3.8-3.8l-1.7-22.3c-0.2-2.5-0.1-6.2-0.1-6.2h-0.1
		c0,0-1.2,3.9-2.2,6.2l-8.5,18.5h-5l-8.5-18.5c-1-2.2-2.3-6.3-2.3-6.3h-0.1c0,0,0.1,3.8-0.1,6.3l-1.7,22.3c-0.2,2.7-1.1,3.8-3.9,3.8
		h-5.3V149.3z"/>
	<path class="st3" d="M152.4,117.4h-3.9v-5.1h24.8c2.7,0,3.8,1.1,3.8,3.8v5.3h-5.4v-2.7c0-0.9-0.5-1.3-1.3-1.3h-12v13.2h14.8v5.1
		h-14.8V148c0,0.8,0.5,1.3,1.3,1.3H172c0.8,0,1.3-0.5,1.3-1.3v-2.7h5.5v5.3c0,2.7-1.1,3.8-3.8,3.8h-18.8c-2.7,0-3.8-1.1-3.8-3.8
		V117.4z"/>
	<path class="st3" d="M186.4,117.4h-3.9v-5.1h18.4c7.4,0,12.6,4.7,12.6,12.4c0,7.1-4.6,10.5-7.6,11.2v0.1c0,0,1.1,0.5,1.8,1.9
		l5.1,10.1c0.6,1.3,1.6,1.4,3,1.4h0.8v5.1h-2.9c-3.3,0-4.5-0.4-5.9-3.2L202,140c-1.1-2-1.9-2.3-4.2-2.3h-5.5v16.8h-6V117.4z
		 M200.1,132.5c4.5,0,7.2-2.9,7.2-7.6s-2.7-7.5-7.1-7.5h-7.9v15.1H200.1z"/>
	<path class="st1" d="M241.1,149.8h2c0.8,0,1.2-0.5,1.3-1.3l2.8-35.4h6.1l9.8,22.1c1,2.2,2.1,5.3,2.1,5.3h0.1c0,0,1.1-3,2.1-5.3
		l9.8-22.1h6.1l2.8,35.4c0.1,0.8,0.5,1.3,1.3,1.3h2v5.1h-5.3c-2.7,0-3.6-1.1-3.8-3.8l-1.7-22.1c-0.2-2.5-0.1-6.2-0.1-6.2h-0.1
		c0,0-1.2,3.9-2.2,6.2l-8.5,18.4h-5l-8.5-18.4c-1-2.2-2.2-6.2-2.2-6.2H252c0,0,0.1,3.7-0.1,6.2l-1.7,22.1c-0.2,2.7-1.1,3.8-3.9,3.8
		h-5.3V149.8z"/>
	<path class="st1" d="M314.1,112.4c12.1,0,21.5,9.3,21.5,21.3c0,12.3-9.4,21.9-21.5,21.9s-21.4-9.6-21.4-21.9
		C292.7,121.7,302,112.4,314.1,112.4z M314.1,150.1c8.5,0,15.3-7.1,15.3-16.3c0-8.9-6.9-15.8-15.3-15.8s-15.3,6.9-15.3,15.8
		C298.8,143,305.6,150.1,314.1,150.1z"/>
	<path class="st1" d="M343.7,118.2h-3.8v-5.1h18.2c7.3,0,12.5,4.6,12.5,12.3c0,7-4.6,10.4-7.5,11.1v0.1c0,0,1.1,0.5,1.8,1.9l5,10
		c0.6,1.2,1.5,1.4,3,1.4h0.8v5.1h-2.9c-3.3,0-4.4-0.4-5.8-3.1l-5.7-11.3c-1.1-2-1.8-2.3-4.1-2.3h-5.4v16.6h-5.9V118.2z M357.3,133.2
		c4.5,0,7.2-2.9,7.2-7.6c0-4.7-2.7-7.4-7-7.4h-7.8v15H357.3z"/>
	<path class="st1" d="M380.3,118.2h-3.8v-5.1h24.6c2.7,0,3.8,1.1,3.8,3.8v5.3h-5.4v-2.7c0-0.9-0.5-1.3-1.3-1.3h-11.9v13.1h14.6v5.1
		h-14.6v12.1c0,0.8,0.5,1.3,1.3,1.3h12.2c0.8,0,1.3-0.5,1.3-1.3v-2.7h5.4v5.3c0,2.7-1.1,3.8-3.8,3.8h-18.6c-2.7,0-3.8-1.1-3.8-3.8
		V118.2z"/>
	<g>
		<path class="st1" d="M234.5,155.2v-0.3c0-0.4-0.1-0.6-0.4-0.7l-12.2-4.5v-2.1l12.2-4.5c0.4-0.1,0.4-0.3,0.4-0.7v-0.3h1.8v1.1
			c0,1-0.2,1.4-1.2,1.7l-3,1.1v5.3l3,1.1c0.9,0.3,1.2,0.7,1.2,1.7v1.1H234.5z M230.4,146.5L226,148c-0.8,0.3-2,0.6-2,0.6v0
			c0,0,1.3,0.3,2,0.6l4.4,1.6V146.5z"/>
		<path class="st1" d="M234.5,141v-0.9c0-0.3-0.2-0.5-0.4-0.5h-12.2v-1.9l9.1-6.4c0.8-0.5,2-1.2,2-1.2v0c0,0-1.1,0.1-2,0.1h-7.8
			c-0.9,0-1.3-0.4-1.3-1.3v-2h1.8v0.9c0,0.3,0.1,0.5,0.4,0.5h12.2v1.8l-9.1,6.4c-0.8,0.5-2,1.2-2,1.2v0c0,0,1.2-0.1,2-0.1h7.8
			c0.9,0,1.3,0.4,1.3,1.3v2.1H234.5z"/>
		<path class="st1" d="M223.6,124.1v1.3h-1.8v-5.9c0-4.4,2.6-7.3,7.2-7.3c4.6,0,7.2,2.9,7.2,7.3v3.2c0,0.9-0.4,1.3-1.3,1.3H223.6z
			 M234.5,121.6v-1.9c0-3.2-1.9-5.3-5.5-5.3c-3.5,0-5.4,2.1-5.4,5.3v2.3h10.5C234.4,122,234.5,121.9,234.5,121.6z"/>
	</g>
</g>
</svg>
